solid CATIA STL
  facet normal  0.000000e+000  0.000000e+000  1.000000e+000
    outer loop
      vertex  1.440000e+002  0.000000e+000  5.000000e+000
      vertex  1.345000e+002  9.500000e+000  5.000000e+000
      vertex  0.000000e+000  0.000000e+000  5.000000e+000
    endloop
  endfacet
  facet normal  0.000000e+000  0.000000e+000  1.000000e+000
    outer loop
      vertex  0.000000e+000  0.000000e+000  5.000000e+000
      vertex  1.345000e+002  9.500000e+000  5.000000e+000
      vertex  9.500000e+000  9.500000e+000  5.000000e+000
    endloop
  endfacet
  facet normal  0.000000e+000  0.000000e+000  1.000000e+000
    outer loop
      vertex  0.000000e+000  0.000000e+000  5.000000e+000
      vertex  9.500000e+000  9.500000e+000  5.000000e+000
      vertex  5.684342e-014  9.400000e+001  5.000000e+000
    endloop
  endfacet
  facet normal  0.000000e+000  0.000000e+000  1.000000e+000
    outer loop
      vertex  5.684342e-014  9.400000e+001  5.000000e+000
      vertex  9.500000e+000  9.500000e+000  5.000000e+000
      vertex  9.500000e+000  8.450000e+001  5.000000e+000
    endloop
  endfacet
  facet normal  0.000000e+000  -0.000000e+000  1.000000e+000
    outer loop
      vertex  5.684342e-014  9.400000e+001  5.000000e+000
      vertex  9.500000e+000  8.450000e+001  5.000000e+000
      vertex  1.440000e+002  9.400000e+001  5.000000e+000
    endloop
  endfacet
  facet normal  0.000000e+000  0.000000e+000  1.000000e+000
    outer loop
      vertex  1.440000e+002  9.400000e+001  5.000000e+000
      vertex  9.500000e+000  8.450000e+001  5.000000e+000
      vertex  1.345000e+002  8.450000e+001  5.000000e+000
    endloop
  endfacet
  facet normal  -0.000000e+000  0.000000e+000  1.000000e+000
    outer loop
      vertex  1.440000e+002  9.400000e+001  5.000000e+000
      vertex  1.345000e+002  8.450000e+001  5.000000e+000
      vertex  1.440000e+002  0.000000e+000  5.000000e+000
    endloop
  endfacet
  facet normal  0.000000e+000  0.000000e+000  1.000000e+000
    outer loop
      vertex  1.440000e+002  0.000000e+000  5.000000e+000
      vertex  1.345000e+002  8.450000e+001  5.000000e+000
      vertex  1.345000e+002  9.500000e+000  5.000000e+000
    endloop
  endfacet
  facet normal -1.000000e+000  0.000000e+000  0.000000e+000
    outer loop
      vertex  9.500000e+000  8.450000e+001  1.050000e+001
      vertex  9.500000e+000  8.450000e+001  5.000000e+000
      vertex  9.500000e+000  9.500000e+000  1.050000e+001
    endloop
  endfacet
  facet normal -1.000000e+000  0.000000e+000  0.000000e+000
    outer loop
      vertex  9.500000e+000  9.500000e+000  1.050000e+001
      vertex  9.500000e+000  8.450000e+001  5.000000e+000
      vertex  9.500000e+000  9.500000e+000  5.000000e+000
    endloop
  endfacet
  facet normal  0.000000e+000  1.000000e+000  -0.000000e+000
    outer loop
      vertex  1.345000e+002  8.450000e+001  1.050000e+001
      vertex  1.345000e+002  8.450000e+001  5.000000e+000
      vertex  9.500000e+000  8.450000e+001  1.050000e+001
    endloop
  endfacet
  facet normal  0.000000e+000  1.000000e+000  0.000000e+000
    outer loop
      vertex  9.500000e+000  8.450000e+001  1.050000e+001
      vertex  1.345000e+002  8.450000e+001  5.000000e+000
      vertex  9.500000e+000  8.450000e+001  5.000000e+000
    endloop
  endfacet
  facet normal  1.000000e+000  0.000000e+000  0.000000e+000
    outer loop
      vertex  1.345000e+002  9.500000e+000  1.050000e+001
      vertex  1.345000e+002  9.500000e+000  5.000000e+000
      vertex  1.345000e+002  8.450000e+001  1.050000e+001
    endloop
  endfacet
  facet normal  1.000000e+000  0.000000e+000  0.000000e+000
    outer loop
      vertex  1.345000e+002  8.450000e+001  1.050000e+001
      vertex  1.345000e+002  9.500000e+000  5.000000e+000
      vertex  1.345000e+002  8.450000e+001  5.000000e+000
    endloop
  endfacet
  facet normal  0.000000e+000 -1.000000e+000  0.000000e+000
    outer loop
      vertex  9.500000e+000  9.500000e+000  1.050000e+001
      vertex  9.500000e+000  9.500000e+000  5.000000e+000
      vertex  1.345000e+002  9.500000e+000  1.050000e+001
    endloop
  endfacet
  facet normal  0.000000e+000 -1.000000e+000  -0.000000e+000
    outer loop
      vertex  1.345000e+002  9.500000e+000  1.050000e+001
      vertex  9.500000e+000  9.500000e+000  5.000000e+000
      vertex  1.345000e+002  9.500000e+000  5.000000e+000
    endloop
  endfacet
  facet normal  0.000000e+000  0.000000e+000  1.000000e+000
    outer loop
      vertex  9.500000e+000  9.500000e+000  1.050000e+001
      vertex  1.345000e+002  9.500000e+000  1.050000e+001
      vertex  9.500000e+000  8.450000e+001  1.050000e+001
    endloop
  endfacet
  facet normal  -0.000000e+000  0.000000e+000  1.000000e+000
    outer loop
      vertex  9.500000e+000  8.450000e+001  1.050000e+001
      vertex  1.345000e+002  9.500000e+000  1.050000e+001
      vertex  1.345000e+002  8.450000e+001  1.050000e+001
    endloop
  endfacet
  facet normal  0.000000e+000  -0.000000e+000 -1.000000e+000
    outer loop
      vertex  0.000000e+000  0.000000e+000  0.000000e+000
      vertex  5.684342e-014  9.400000e+001  0.000000e+000
      vertex  1.440000e+002  0.000000e+000  0.000000e+000
    endloop
  endfacet
  facet normal  0.000000e+000  0.000000e+000 -1.000000e+000
    outer loop
      vertex  1.440000e+002  0.000000e+000  0.000000e+000
      vertex  5.684342e-014  9.400000e+001  0.000000e+000
      vertex  1.440000e+002  9.400000e+001  0.000000e+000
    endloop
  endfacet
  facet normal -9.999999e-001  6.047172e-016  0.000000e+000
    outer loop
      vertex  5.684342e-014  9.400000e+001  5.000000e+000
      vertex  5.684342e-014  9.400000e+001  0.000000e+000
      vertex  0.000000e+000  0.000000e+000  5.000000e+000
    endloop
  endfacet
  facet normal -9.999999e-001  6.047172e-016  0.000000e+000
    outer loop
      vertex  0.000000e+000  0.000000e+000  5.000000e+000
      vertex  5.684342e-014  9.400000e+001  0.000000e+000
      vertex  0.000000e+000  0.000000e+000  0.000000e+000
    endloop
  endfacet
  facet normal  0.000000e+000  1.000000e+000  -0.000000e+000
    outer loop
      vertex  1.440000e+002  9.400000e+001  5.000000e+000
      vertex  1.440000e+002  9.400000e+001  0.000000e+000
      vertex  5.684342e-014  9.400000e+001  5.000000e+000
    endloop
  endfacet
  facet normal  0.000000e+000  1.000000e+000  0.000000e+000
    outer loop
      vertex  5.684342e-014  9.400000e+001  5.000000e+000
      vertex  1.440000e+002  9.400000e+001  0.000000e+000
      vertex  5.684342e-014  9.400000e+001  0.000000e+000
    endloop
  endfacet
  facet normal  9.999999e-001  0.000000e+000  0.000000e+000
    outer loop
      vertex  1.440000e+002  0.000000e+000  5.000000e+000
      vertex  1.440000e+002  0.000000e+000  0.000000e+000
      vertex  1.440000e+002  9.400000e+001  5.000000e+000
    endloop
  endfacet
  facet normal  9.999999e-001  0.000000e+000  0.000000e+000
    outer loop
      vertex  1.440000e+002  9.400000e+001  5.000000e+000
      vertex  1.440000e+002  0.000000e+000  0.000000e+000
      vertex  1.440000e+002  9.400000e+001  0.000000e+000
    endloop
  endfacet
  facet normal  0.000000e+000 -1.000000e+000  0.000000e+000
    outer loop
      vertex  0.000000e+000  0.000000e+000  5.000000e+000
      vertex  0.000000e+000  0.000000e+000  0.000000e+000
      vertex  1.440000e+002  0.000000e+000  5.000000e+000
    endloop
  endfacet
  facet normal  0.000000e+000 -1.000000e+000  -0.000000e+000
    outer loop
      vertex  1.440000e+002  0.000000e+000  5.000000e+000
      vertex  0.000000e+000  0.000000e+000  0.000000e+000
      vertex  1.440000e+002  0.000000e+000  0.000000e+000
    endloop
  endfacet
endsolid CATIA STL
