solid CATIA STL
  facet normal  1.000000e+000  0.000000e+000  0.000000e+000
    outer loop
      vertex  8.100000e+000  3.741181e+000  5.465926e+000
      vertex  8.100000e+000  4.258819e+000  5.465926e+000
      vertex  8.100000e+000  4.000000e+000  5.500000e+000
    endloop
  endfacet
  facet normal  1.000000e+000  -0.000000e+000  0.000000e+000
    outer loop
      vertex  8.100000e+000  4.258819e+000  5.465926e+000
      vertex  8.100000e+000  3.741181e+000  5.465926e+000
      vertex  8.100000e+000  4.500000e+000  5.366025e+000
    endloop
  endfacet
  facet normal  9.999999e-001  0.000000e+000  0.000000e+000
    outer loop
      vertex  8.100000e+000  4.500000e+000  5.366025e+000
      vertex  8.100000e+000  3.741181e+000  5.465926e+000
      vertex  8.100000e+000  3.500000e+000  5.366025e+000
    endloop
  endfacet
  facet normal  1.000000e+000  -0.000000e+000  0.000000e+000
    outer loop
      vertex  8.100000e+000  4.500000e+000  5.366025e+000
      vertex  8.100000e+000  3.500000e+000  5.366025e+000
      vertex  8.100000e+000  4.707107e+000  5.207107e+000
    endloop
  endfacet
  facet normal  9.999999e-001  0.000000e+000  0.000000e+000
    outer loop
      vertex  8.100000e+000  4.707107e+000  5.207107e+000
      vertex  8.100000e+000  3.500000e+000  5.366025e+000
      vertex  8.100000e+000  3.292893e+000  5.207107e+000
    endloop
  endfacet
  facet normal  1.000000e+000  -0.000000e+000  0.000000e+000
    outer loop
      vertex  8.100000e+000  4.707107e+000  5.207107e+000
      vertex  8.100000e+000  3.292893e+000  5.207107e+000
      vertex  8.100000e+000  4.866025e+000  5.000000e+000
    endloop
  endfacet
  facet normal  1.000000e+000  0.000000e+000  0.000000e+000
    outer loop
      vertex  8.100000e+000  4.866025e+000  5.000000e+000
      vertex  8.100000e+000  3.292893e+000  5.207107e+000
      vertex  8.100000e+000  3.133975e+000  5.000000e+000
    endloop
  endfacet
  facet normal  1.000000e+000  -0.000000e+000  0.000000e+000
    outer loop
      vertex  8.100000e+000  4.866025e+000  5.000000e+000
      vertex  8.100000e+000  3.133975e+000  5.000000e+000
      vertex  8.100000e+000  4.965926e+000  4.758819e+000
    endloop
  endfacet
  facet normal  1.000000e+000  0.000000e+000  0.000000e+000
    outer loop
      vertex  8.100000e+000  4.965926e+000  4.758819e+000
      vertex  8.100000e+000  3.133975e+000  5.000000e+000
      vertex  8.100000e+000  3.034074e+000  4.758819e+000
    endloop
  endfacet
  facet normal  1.000000e+000  -0.000000e+000  0.000000e+000
    outer loop
      vertex  8.100000e+000  4.965926e+000  4.758819e+000
      vertex  8.100000e+000  3.034074e+000  4.758819e+000
      vertex  8.100000e+000  5.000000e+000  4.500000e+000
    endloop
  endfacet
  facet normal  1.000000e+000  0.000000e+000  0.000000e+000
    outer loop
      vertex  8.100000e+000  5.000000e+000  4.500000e+000
      vertex  8.100000e+000  3.034074e+000  4.758819e+000
      vertex  8.100000e+000  3.000000e+000  4.500000e+000
    endloop
  endfacet
  facet normal  1.000000e+000  -0.000000e+000  0.000000e+000
    outer loop
      vertex  8.100000e+000  5.000000e+000  4.500000e+000
      vertex  8.100000e+000  3.000000e+000  4.500000e+000
      vertex  8.100000e+000  4.965926e+000  4.241181e+000
    endloop
  endfacet
  facet normal  1.000000e+000  0.000000e+000  0.000000e+000
    outer loop
      vertex  8.100000e+000  4.965926e+000  4.241181e+000
      vertex  8.100000e+000  3.000000e+000  4.500000e+000
      vertex  8.100000e+000  3.034074e+000  4.241181e+000
    endloop
  endfacet
  facet normal  1.000000e+000  -0.000000e+000  0.000000e+000
    outer loop
      vertex  8.100000e+000  4.965926e+000  4.241181e+000
      vertex  8.100000e+000  3.034074e+000  4.241181e+000
      vertex  8.100000e+000  4.866025e+000  4.000000e+000
    endloop
  endfacet
  facet normal  1.000000e+000  0.000000e+000  0.000000e+000
    outer loop
      vertex  8.100000e+000  4.866025e+000  4.000000e+000
      vertex  8.100000e+000  3.034074e+000  4.241181e+000
      vertex  8.100000e+000  3.133975e+000  4.000000e+000
    endloop
  endfacet
  facet normal  1.000000e+000  -0.000000e+000  0.000000e+000
    outer loop
      vertex  8.100000e+000  4.866025e+000  4.000000e+000
      vertex  8.100000e+000  3.133975e+000  4.000000e+000
      vertex  8.100000e+000  4.707107e+000  3.792893e+000
    endloop
  endfacet
  facet normal  1.000000e+000  0.000000e+000  0.000000e+000
    outer loop
      vertex  8.100000e+000  4.707107e+000  3.792893e+000
      vertex  8.100000e+000  3.133975e+000  4.000000e+000
      vertex  8.100000e+000  3.292893e+000  3.792893e+000
    endloop
  endfacet
  facet normal  1.000000e+000  -0.000000e+000  0.000000e+000
    outer loop
      vertex  8.100000e+000  4.707107e+000  3.792893e+000
      vertex  8.100000e+000  3.292893e+000  3.792893e+000
      vertex  8.100000e+000  4.500000e+000  3.633975e+000
    endloop
  endfacet
  facet normal  1.000000e+000  0.000000e+000  0.000000e+000
    outer loop
      vertex  8.100000e+000  4.500000e+000  3.633975e+000
      vertex  8.100000e+000  3.292893e+000  3.792893e+000
      vertex  8.100000e+000  3.500000e+000  3.633975e+000
    endloop
  endfacet
  facet normal  9.999999e-001  -0.000000e+000  0.000000e+000
    outer loop
      vertex  8.100000e+000  4.500000e+000  3.633975e+000
      vertex  8.100000e+000  3.500000e+000  3.633975e+000
      vertex  8.100000e+000  4.258819e+000  3.534074e+000
    endloop
  endfacet
  facet normal  9.999999e-001  0.000000e+000  0.000000e+000
    outer loop
      vertex  8.100000e+000  4.258819e+000  3.534074e+000
      vertex  8.100000e+000  3.500000e+000  3.633975e+000
      vertex  8.100000e+000  3.741181e+000  3.534074e+000
    endloop
  endfacet
  facet normal  1.000000e+000  -0.000000e+000  0.000000e+000
    outer loop
      vertex  8.100000e+000  4.258819e+000  3.534074e+000
      vertex  8.100000e+000  3.741181e+000  3.534074e+000
      vertex  8.100000e+000  4.000000e+000  3.500000e+000
    endloop
  endfacet
  facet normal  9.999999e-001  0.000000e+000  0.000000e+000
    outer loop
      vertex  8.100000e+000  8.900000e+000  4.800000e+000
      vertex  8.100000e+000  4.607437e+000  5.761356e+000
      vertex  8.100000e+000  4.872886e+000  5.594564e+000
    endloop
  endfacet
  facet normal  1.000000e+000  0.000000e+000  0.000000e+000
    outer loop
      vertex  8.100000e+000  8.900000e+000  4.800000e+000
      vertex  8.100000e+000  4.872886e+000  5.594564e+000
      vertex  8.100000e+000  5.094564e+000  5.372886e+000
    endloop
  endfacet
  facet normal  1.000000e+000  0.000000e+000  0.000000e+000
    outer loop
      vertex  8.100000e+000  8.900000e+000  4.800000e+000
      vertex  8.100000e+000  5.094564e+000  5.372886e+000
      vertex  8.100000e+000  5.261356e+000  5.107437e+000
    endloop
  endfacet
  facet normal  1.000000e+000  0.000000e+000  0.000000e+000
    outer loop
      vertex  8.100000e+000  8.900000e+000  4.800000e+000
      vertex  8.100000e+000  5.261356e+000  5.107437e+000
      vertex  8.100000e+000  5.364899e+000  4.811529e+000
    endloop
  endfacet
  facet normal  1.000000e+000  0.000000e+000  0.000000e+000
    outer loop
      vertex  8.100000e+000  8.900000e+000  4.800000e+000
      vertex  8.100000e+000  5.364899e+000  4.811529e+000
      vertex  8.100000e+000  5.400000e+000  4.500000e+000
    endloop
  endfacet
  facet normal  1.000000e+000  -0.000000e+000  0.000000e+000
    outer loop
      vertex  8.100000e+000  8.900000e+000  4.800000e+000
      vertex  8.100000e+000  5.400000e+000  4.500000e+000
      vertex  8.100000e+000  8.900000e+000  4.200000e+000
    endloop
  endfacet
  facet normal  1.000000e+000  0.000000e+000  0.000000e+000
    outer loop
      vertex  8.100000e+000  8.900000e+000  4.200000e+000
      vertex  8.100000e+000  5.400000e+000  4.500000e+000
      vertex  8.100000e+000  5.364899e+000  4.188471e+000
    endloop
  endfacet
  facet normal  1.000000e+000  -0.000000e+000  0.000000e+000
    outer loop
      vertex  8.100000e+000  8.900000e+000  4.200000e+000
      vertex  8.100000e+000  5.364899e+000  4.188471e+000
      vertex  8.100000e+000  5.261356e+000  3.892563e+000
    endloop
  endfacet
  facet normal  1.000000e+000  -0.000000e+000  0.000000e+000
    outer loop
      vertex  8.100000e+000  8.900000e+000  4.200000e+000
      vertex  8.100000e+000  5.261356e+000  3.892563e+000
      vertex  8.100000e+000  5.094564e+000  3.627114e+000
    endloop
  endfacet
  facet normal  1.000000e+000  -0.000000e+000  0.000000e+000
    outer loop
      vertex  8.100000e+000  8.900000e+000  4.200000e+000
      vertex  8.100000e+000  5.094564e+000  3.627114e+000
      vertex  8.100000e+000  4.872886e+000  3.405436e+000
    endloop
  endfacet
  facet normal  9.999999e-001  -0.000000e+000  0.000000e+000
    outer loop
      vertex  8.100000e+000  8.900000e+000  4.200000e+000
      vertex  8.100000e+000  4.872886e+000  3.405436e+000
      vertex  8.100000e+000  4.607437e+000  3.238644e+000
    endloop
  endfacet
  facet normal  1.000000e+000  0.000000e+000  0.000000e+000
    outer loop
      vertex  8.100000e+000  8.000000e-001  7.000000e-001
      vertex  8.100000e+000  1.380000e+001  7.000000e-001
      vertex  8.100000e+000  1.210000e+001  4.200000e+000
    endloop
  endfacet
  facet normal  1.000000e+000  0.000000e+000  0.000000e+000
    outer loop
      vertex  8.100000e+000  8.000000e-001  7.000000e-001
      vertex  8.100000e+000  1.210000e+001  4.200000e+000
      vertex  8.100000e+000  8.900000e+000  4.200000e+000
    endloop
  endfacet
  facet normal  1.000000e+000  0.000000e+000  0.000000e+000
    outer loop
      vertex  8.100000e+000  8.000000e-001  7.000000e-001
      vertex  8.100000e+000  8.900000e+000  4.200000e+000
      vertex  8.100000e+000  4.607437e+000  3.238644e+000
    endloop
  endfacet
  facet normal  1.000000e+000  0.000000e+000  0.000000e+000
    outer loop
      vertex  8.100000e+000  8.000000e-001  7.000000e-001
      vertex  8.100000e+000  4.607437e+000  3.238644e+000
      vertex  8.100000e+000  4.311529e+000  3.135101e+000
    endloop
  endfacet
  facet normal  1.000000e+000  0.000000e+000  0.000000e+000
    outer loop
      vertex  8.100000e+000  8.000000e-001  7.000000e-001
      vertex  8.100000e+000  4.311529e+000  3.135101e+000
      vertex  8.100000e+000  4.000000e+000  3.100000e+000
    endloop
  endfacet
  facet normal  1.000000e+000  0.000000e+000  0.000000e+000
    outer loop
      vertex  8.100000e+000  8.000000e-001  7.000000e-001
      vertex  8.100000e+000  4.000000e+000  3.100000e+000
      vertex  8.100000e+000  3.688471e+000  3.135101e+000
    endloop
  endfacet
  facet normal  1.000000e+000  0.000000e+000  0.000000e+000
    outer loop
      vertex  8.100000e+000  8.000000e-001  7.000000e-001
      vertex  8.100000e+000  3.688471e+000  3.135101e+000
      vertex  8.100000e+000  3.392563e+000  3.238644e+000
    endloop
  endfacet
  facet normal  1.000000e+000  0.000000e+000  0.000000e+000
    outer loop
      vertex  8.100000e+000  8.000000e-001  7.000000e-001
      vertex  8.100000e+000  3.392563e+000  3.238644e+000
      vertex  8.100000e+000  3.127114e+000  3.405436e+000
    endloop
  endfacet
  facet normal  1.000000e+000  0.000000e+000  0.000000e+000
    outer loop
      vertex  8.100000e+000  8.000000e-001  7.000000e-001
      vertex  8.100000e+000  3.127114e+000  3.405436e+000
      vertex  8.100000e+000  2.905436e+000  3.627114e+000
    endloop
  endfacet
  facet normal  1.000000e+000  0.000000e+000  0.000000e+000
    outer loop
      vertex  8.100000e+000  8.000000e-001  7.000000e-001
      vertex  8.100000e+000  2.905436e+000  3.627114e+000
      vertex  8.100000e+000  2.738644e+000  3.892563e+000
    endloop
  endfacet
  facet normal  1.000000e+000  0.000000e+000  0.000000e+000
    outer loop
      vertex  8.100000e+000  8.000000e-001  7.000000e-001
      vertex  8.100000e+000  2.738644e+000  3.892563e+000
      vertex  8.100000e+000  2.635101e+000  4.188471e+000
    endloop
  endfacet
  facet normal  1.000000e+000  0.000000e+000  0.000000e+000
    outer loop
      vertex  8.100000e+000  8.000000e-001  7.000000e-001
      vertex  8.100000e+000  2.635101e+000  4.188471e+000
      vertex  8.100000e+000  2.600000e+000  4.500000e+000
    endloop
  endfacet
  facet normal  1.000000e+000  0.000000e+000  -0.000000e+000
    outer loop
      vertex  8.100000e+000  8.000000e-001  7.000000e-001
      vertex  8.100000e+000  2.600000e+000  4.500000e+000
      vertex  8.100000e+000  2.635101e+000  4.811529e+000
    endloop
  endfacet
  facet normal  9.999999e-001  0.000000e+000  -0.000000e+000
    outer loop
      vertex  8.100000e+000  8.000000e-001  7.000000e-001
      vertex  8.100000e+000  2.635101e+000  4.811529e+000
      vertex  8.100000e+000  2.738644e+000  5.107437e+000
    endloop
  endfacet
  facet normal  1.000000e+000  0.000000e+000  0.000000e+000
    outer loop
      vertex  8.100000e+000  8.000000e-001  7.000000e-001
      vertex  8.100000e+000  2.738644e+000  5.107437e+000
      vertex  8.100000e+000  8.000000e-001  8.300000e+000
    endloop
  endfacet
  facet normal  1.000000e+000  0.000000e+000  -0.000000e+000
    outer loop
      vertex  8.100000e+000  8.000000e-001  8.300000e+000
      vertex  8.100000e+000  2.738644e+000  5.107437e+000
      vertex  8.100000e+000  2.905436e+000  5.372886e+000
    endloop
  endfacet
  facet normal  1.000000e+000  0.000000e+000  -0.000000e+000
    outer loop
      vertex  8.100000e+000  8.000000e-001  8.300000e+000
      vertex  8.100000e+000  2.905436e+000  5.372886e+000
      vertex  8.100000e+000  3.127114e+000  5.594564e+000
    endloop
  endfacet
  facet normal  1.000000e+000  0.000000e+000  -0.000000e+000
    outer loop
      vertex  8.100000e+000  8.000000e-001  8.300000e+000
      vertex  8.100000e+000  3.127114e+000  5.594564e+000
      vertex  8.100000e+000  3.392563e+000  5.761356e+000
    endloop
  endfacet
  facet normal  1.000000e+000  0.000000e+000  -0.000000e+000
    outer loop
      vertex  8.100000e+000  8.000000e-001  8.300000e+000
      vertex  8.100000e+000  3.392563e+000  5.761356e+000
      vertex  8.100000e+000  3.688471e+000  5.864899e+000
    endloop
  endfacet
  facet normal  1.000000e+000  0.000000e+000  -0.000000e+000
    outer loop
      vertex  8.100000e+000  8.000000e-001  8.300000e+000
      vertex  8.100000e+000  3.688471e+000  5.864899e+000
      vertex  8.100000e+000  4.000000e+000  5.900000e+000
    endloop
  endfacet
  facet normal  1.000000e+000  -0.000000e+000  -0.000000e+000
    outer loop
      vertex  8.100000e+000  8.000000e-001  8.300000e+000
      vertex  8.100000e+000  4.000000e+000  5.900000e+000
      vertex  8.100000e+000  4.311529e+000  5.864899e+000
    endloop
  endfacet
  facet normal  1.000000e+000  -0.000000e+000  -0.000000e+000
    outer loop
      vertex  8.100000e+000  8.000000e-001  8.300000e+000
      vertex  8.100000e+000  4.311529e+000  5.864899e+000
      vertex  8.100000e+000  4.607437e+000  5.761356e+000
    endloop
  endfacet
  facet normal  1.000000e+000  -0.000000e+000  -0.000000e+000
    outer loop
      vertex  8.100000e+000  8.000000e-001  8.300000e+000
      vertex  8.100000e+000  4.607437e+000  5.761356e+000
      vertex  8.100000e+000  8.900000e+000  4.800000e+000
    endloop
  endfacet
  facet normal  1.000000e+000  0.000000e+000  -0.000000e+000
    outer loop
      vertex  8.100000e+000  8.000000e-001  8.300000e+000
      vertex  8.100000e+000  8.900000e+000  4.800000e+000
      vertex  8.100000e+000  1.210000e+001  4.800000e+000
    endloop
  endfacet
  facet normal  1.000000e+000  0.000000e+000  -0.000000e+000
    outer loop
      vertex  8.100000e+000  8.000000e-001  8.300000e+000
      vertex  8.100000e+000  1.210000e+001  4.800000e+000
      vertex  8.100000e+000  1.380000e+001  8.300000e+000
    endloop
  endfacet
  facet normal  1.000000e+000  0.000000e+000  0.000000e+000
    outer loop
      vertex  8.100000e+000  1.210000e+001  4.800000e+000
      vertex  8.100000e+000  1.210000e+001  4.200000e+000
      vertex  8.100000e+000  1.380000e+001  8.300000e+000
    endloop
  endfacet
  facet normal  1.000000e+000  0.000000e+000  0.000000e+000
    outer loop
      vertex  8.100000e+000  1.380000e+001  8.300000e+000
      vertex  8.100000e+000  1.210000e+001  4.200000e+000
      vertex  8.100000e+000  1.380000e+001  7.000000e-001
    endloop
  endfacet
  facet normal  0.000000e+000  0.000000e+000  1.000000e+000
    outer loop
      vertex  8.200000e+000  8.900000e+000  4.800000e+000
      vertex  8.200000e+000  1.210000e+001  4.800000e+000
      vertex  8.100000e+000  8.900000e+000  4.800000e+000
    endloop
  endfacet
  facet normal  0.000000e+000  0.000000e+000  1.000000e+000
    outer loop
      vertex  8.100000e+000  8.900000e+000  4.800000e+000
      vertex  8.200000e+000  1.210000e+001  4.800000e+000
      vertex  8.100000e+000  1.210000e+001  4.800000e+000
    endloop
  endfacet
  facet normal  0.000000e+000  1.000000e+000  0.000000e+000
    outer loop
      vertex  8.200000e+000  1.210000e+001  4.200000e+000
      vertex  8.100000e+000  1.210000e+001  4.200000e+000
      vertex  8.200000e+000  1.210000e+001  4.800000e+000
    endloop
  endfacet
  facet normal  0.000000e+000  1.000000e+000  0.000000e+000
    outer loop
      vertex  8.200000e+000  1.210000e+001  4.800000e+000
      vertex  8.100000e+000  1.210000e+001  4.200000e+000
      vertex  8.100000e+000  1.210000e+001  4.800000e+000
    endloop
  endfacet
  facet normal  0.000000e+000  0.000000e+000 -1.000000e+000
    outer loop
      vertex  8.200000e+000  1.210000e+001  4.200000e+000
      vertex  8.200000e+000  8.900000e+000  4.200000e+000
      vertex  8.100000e+000  1.210000e+001  4.200000e+000
    endloop
  endfacet
  facet normal  0.000000e+000  0.000000e+000 -1.000000e+000
    outer loop
      vertex  8.100000e+000  1.210000e+001  4.200000e+000
      vertex  8.200000e+000  8.900000e+000  4.200000e+000
      vertex  8.100000e+000  8.900000e+000  4.200000e+000
    endloop
  endfacet
  facet normal  0.000000e+000 -1.000000e+000  0.000000e+000
    outer loop
      vertex  8.200000e+000  8.900000e+000  4.800000e+000
      vertex  8.100000e+000  8.900000e+000  4.800000e+000
      vertex  8.200000e+000  8.900000e+000  4.200000e+000
    endloop
  endfacet
  facet normal  0.000000e+000 -1.000000e+000  0.000000e+000
    outer loop
      vertex  8.200000e+000  8.900000e+000  4.200000e+000
      vertex  8.100000e+000  8.900000e+000  4.800000e+000
      vertex  8.100000e+000  8.900000e+000  4.200000e+000
    endloop
  endfacet
  facet normal  0.000000e+000  1.305267e-001 -9.914448e-001
    outer loop
      vertex  8.100000e+000  4.000000e+000  5.500000e+000
      vertex  8.200000e+000  3.741181e+000  5.465926e+000
      vertex  8.100000e+000  3.741181e+000  5.465926e+000
    endloop
  endfacet
  facet normal  0.000000e+000  3.826829e-001 -9.238797e-001
    outer loop
      vertex  8.100000e+000  3.741181e+000  5.465926e+000
      vertex  8.200000e+000  3.741181e+000  5.465926e+000
      vertex  8.200000e+000  3.500000e+000  5.366025e+000
    endloop
  endfacet
  facet normal  0.000000e+000  3.826829e-001 -9.238797e-001
    outer loop
      vertex  8.100000e+000  3.741181e+000  5.465926e+000
      vertex  8.200000e+000  3.500000e+000  5.366025e+000
      vertex  8.100000e+000  3.500000e+000  5.366025e+000
    endloop
  endfacet
  facet normal  0.000000e+000  6.087618e-001 -7.933530e-001
    outer loop
      vertex  8.100000e+000  3.500000e+000  5.366025e+000
      vertex  8.200000e+000  3.500000e+000  5.366025e+000
      vertex  8.200000e+000  3.292893e+000  5.207107e+000
    endloop
  endfacet
  facet normal  0.000000e+000  6.087618e-001 -7.933530e-001
    outer loop
      vertex  8.100000e+000  3.500000e+000  5.366025e+000
      vertex  8.200000e+000  3.292893e+000  5.207107e+000
      vertex  8.100000e+000  3.292893e+000  5.207107e+000
    endloop
  endfacet
  facet normal  0.000000e+000  7.933531e-001 -6.087618e-001
    outer loop
      vertex  8.100000e+000  3.292893e+000  5.207107e+000
      vertex  8.200000e+000  3.292893e+000  5.207107e+000
      vertex  8.200000e+000  3.133975e+000  5.000000e+000
    endloop
  endfacet
  facet normal  0.000000e+000  7.933531e-001 -6.087618e-001
    outer loop
      vertex  8.100000e+000  3.292893e+000  5.207107e+000
      vertex  8.200000e+000  3.133975e+000  5.000000e+000
      vertex  8.100000e+000  3.133975e+000  5.000000e+000
    endloop
  endfacet
  facet normal  0.000000e+000  9.238795e-001 -3.826837e-001
    outer loop
      vertex  8.100000e+000  3.133975e+000  5.000000e+000
      vertex  8.200000e+000  3.133975e+000  5.000000e+000
      vertex  8.200000e+000  3.034074e+000  4.758819e+000
    endloop
  endfacet
  facet normal  0.000000e+000  9.238795e-001 -3.826837e-001
    outer loop
      vertex  8.100000e+000  3.133975e+000  5.000000e+000
      vertex  8.200000e+000  3.034074e+000  4.758819e+000
      vertex  8.100000e+000  3.034074e+000  4.758819e+000
    endloop
  endfacet
  facet normal  0.000000e+000  9.914449e-001 -1.305258e-001
    outer loop
      vertex  8.100000e+000  3.034074e+000  4.758819e+000
      vertex  8.200000e+000  3.034074e+000  4.758819e+000
      vertex  8.200000e+000  3.000000e+000  4.500000e+000
    endloop
  endfacet
  facet normal  0.000000e+000  9.914449e-001 -1.305258e-001
    outer loop
      vertex  8.100000e+000  3.034074e+000  4.758819e+000
      vertex  8.200000e+000  3.000000e+000  4.500000e+000
      vertex  8.100000e+000  3.000000e+000  4.500000e+000
    endloop
  endfacet
  facet normal  0.000000e+000  1.305267e-001 -9.914448e-001
    outer loop
      vertex  8.200000e+000  3.741181e+000  5.465926e+000
      vertex  8.100000e+000  4.000000e+000  5.500000e+000
      vertex  8.200000e+000  4.000000e+000  5.500000e+000
    endloop
  endfacet
  facet normal  -0.000000e+000 -1.305267e-001 -9.914448e-001
    outer loop
      vertex  8.200000e+000  4.000000e+000  5.500000e+000
      vertex  8.100000e+000  4.000000e+000  5.500000e+000
      vertex  8.100000e+000  4.258819e+000  5.465926e+000
    endloop
  endfacet
  facet normal  0.000000e+000 -1.305267e-001 -9.914448e-001
    outer loop
      vertex  8.200000e+000  4.000000e+000  5.500000e+000
      vertex  8.100000e+000  4.258819e+000  5.465926e+000
      vertex  8.200000e+000  4.258819e+000  5.465926e+000
    endloop
  endfacet
  facet normal  -0.000000e+000 -3.826829e-001 -9.238797e-001
    outer loop
      vertex  8.200000e+000  4.258819e+000  5.465926e+000
      vertex  8.100000e+000  4.258819e+000  5.465926e+000
      vertex  8.100000e+000  4.500000e+000  5.366025e+000
    endloop
  endfacet
  facet normal  0.000000e+000 -3.826829e-001 -9.238797e-001
    outer loop
      vertex  8.200000e+000  4.258819e+000  5.465926e+000
      vertex  8.100000e+000  4.500000e+000  5.366025e+000
      vertex  8.200000e+000  4.500000e+000  5.366025e+000
    endloop
  endfacet
  facet normal  -0.000000e+000 -6.087623e-001 -7.933527e-001
    outer loop
      vertex  8.200000e+000  4.500000e+000  5.366025e+000
      vertex  8.100000e+000  4.500000e+000  5.366025e+000
      vertex  8.100000e+000  4.707107e+000  5.207107e+000
    endloop
  endfacet
  facet normal  0.000000e+000 -6.087623e-001 -7.933527e-001
    outer loop
      vertex  8.200000e+000  4.500000e+000  5.366025e+000
      vertex  8.100000e+000  4.707107e+000  5.207107e+000
      vertex  8.200000e+000  4.707107e+000  5.207107e+000
    endloop
  endfacet
  facet normal  -0.000000e+000 -7.933527e-001 -6.087623e-001
    outer loop
      vertex  8.200000e+000  4.707107e+000  5.207107e+000
      vertex  8.100000e+000  4.707107e+000  5.207107e+000
      vertex  8.100000e+000  4.866025e+000  5.000000e+000
    endloop
  endfacet
  facet normal  0.000000e+000 -7.933527e-001 -6.087623e-001
    outer loop
      vertex  8.200000e+000  4.707107e+000  5.207107e+000
      vertex  8.100000e+000  4.866025e+000  5.000000e+000
      vertex  8.200000e+000  4.866025e+000  5.000000e+000
    endloop
  endfacet
  facet normal  -0.000000e+000 -9.238797e-001 -3.826829e-001
    outer loop
      vertex  8.200000e+000  4.866025e+000  5.000000e+000
      vertex  8.100000e+000  4.866025e+000  5.000000e+000
      vertex  8.100000e+000  4.965926e+000  4.758819e+000
    endloop
  endfacet
  facet normal  0.000000e+000 -9.238797e-001 -3.826829e-001
    outer loop
      vertex  8.200000e+000  4.866025e+000  5.000000e+000
      vertex  8.100000e+000  4.965926e+000  4.758819e+000
      vertex  8.200000e+000  4.965926e+000  4.758819e+000
    endloop
  endfacet
  facet normal  -0.000000e+000 -9.914448e-001 -1.305267e-001
    outer loop
      vertex  8.200000e+000  4.965926e+000  4.758819e+000
      vertex  8.100000e+000  4.965926e+000  4.758819e+000
      vertex  8.100000e+000  5.000000e+000  4.500000e+000
    endloop
  endfacet
  facet normal  0.000000e+000 -9.914448e-001 -1.305267e-001
    outer loop
      vertex  8.200000e+000  4.965926e+000  4.758819e+000
      vertex  8.100000e+000  5.000000e+000  4.500000e+000
      vertex  8.200000e+000  5.000000e+000  4.500000e+000
    endloop
  endfacet
  facet normal  0.000000e+000 -1.305258e-001  9.914449e-001
    outer loop
      vertex  8.100000e+000  4.000000e+000  3.500000e+000
      vertex  8.200000e+000  4.258819e+000  3.534074e+000
      vertex  8.100000e+000  4.258819e+000  3.534074e+000
    endloop
  endfacet
  facet normal  0.000000e+000 -3.826837e-001  9.238795e-001
    outer loop
      vertex  8.100000e+000  4.258819e+000  3.534074e+000
      vertex  8.200000e+000  4.258819e+000  3.534074e+000
      vertex  8.200000e+000  4.500000e+000  3.633975e+000
    endloop
  endfacet
  facet normal  0.000000e+000 -3.826837e-001  9.238795e-001
    outer loop
      vertex  8.100000e+000  4.258819e+000  3.534074e+000
      vertex  8.200000e+000  4.500000e+000  3.633975e+000
      vertex  8.100000e+000  4.500000e+000  3.633975e+000
    endloop
  endfacet
  facet normal  0.000000e+000 -6.087618e-001  7.933531e-001
    outer loop
      vertex  8.100000e+000  4.500000e+000  3.633975e+000
      vertex  8.200000e+000  4.500000e+000  3.633975e+000
      vertex  8.200000e+000  4.707107e+000  3.792893e+000
    endloop
  endfacet
  facet normal  0.000000e+000 -6.087618e-001  7.933531e-001
    outer loop
      vertex  8.100000e+000  4.500000e+000  3.633975e+000
      vertex  8.200000e+000  4.707107e+000  3.792893e+000
      vertex  8.100000e+000  4.707107e+000  3.792893e+000
    endloop
  endfacet
  facet normal  0.000000e+000 -7.933530e-001  6.087618e-001
    outer loop
      vertex  8.100000e+000  4.707107e+000  3.792893e+000
      vertex  8.200000e+000  4.707107e+000  3.792893e+000
      vertex  8.200000e+000  4.866025e+000  4.000000e+000
    endloop
  endfacet
  facet normal  0.000000e+000 -7.933530e-001  6.087618e-001
    outer loop
      vertex  8.100000e+000  4.707107e+000  3.792893e+000
      vertex  8.200000e+000  4.866025e+000  4.000000e+000
      vertex  8.100000e+000  4.866025e+000  4.000000e+000
    endloop
  endfacet
  facet normal  0.000000e+000 -9.238797e-001  3.826829e-001
    outer loop
      vertex  8.100000e+000  4.866025e+000  4.000000e+000
      vertex  8.200000e+000  4.866025e+000  4.000000e+000
      vertex  8.200000e+000  4.965926e+000  4.241181e+000
    endloop
  endfacet
  facet normal  0.000000e+000 -9.238797e-001  3.826829e-001
    outer loop
      vertex  8.100000e+000  4.866025e+000  4.000000e+000
      vertex  8.200000e+000  4.965926e+000  4.241181e+000
      vertex  8.100000e+000  4.965926e+000  4.241181e+000
    endloop
  endfacet
  facet normal  0.000000e+000 -9.914448e-001  1.305267e-001
    outer loop
      vertex  8.100000e+000  4.965926e+000  4.241181e+000
      vertex  8.200000e+000  4.965926e+000  4.241181e+000
      vertex  8.200000e+000  5.000000e+000  4.500000e+000
    endloop
  endfacet
  facet normal  0.000000e+000 -9.914448e-001  1.305267e-001
    outer loop
      vertex  8.100000e+000  4.965926e+000  4.241181e+000
      vertex  8.200000e+000  5.000000e+000  4.500000e+000
      vertex  8.100000e+000  5.000000e+000  4.500000e+000
    endloop
  endfacet
  facet normal  0.000000e+000 -1.305258e-001  9.914449e-001
    outer loop
      vertex  8.200000e+000  4.258819e+000  3.534074e+000
      vertex  8.100000e+000  4.000000e+000  3.500000e+000
      vertex  8.200000e+000  4.000000e+000  3.500000e+000
    endloop
  endfacet
  facet normal  0.000000e+000  1.305258e-001  9.914449e-001
    outer loop
      vertex  8.200000e+000  4.000000e+000  3.500000e+000
      vertex  8.100000e+000  4.000000e+000  3.500000e+000
      vertex  8.100000e+000  3.741181e+000  3.534074e+000
    endloop
  endfacet
  facet normal  -0.000000e+000  1.305258e-001  9.914449e-001
    outer loop
      vertex  8.200000e+000  4.000000e+000  3.500000e+000
      vertex  8.100000e+000  3.741181e+000  3.534074e+000
      vertex  8.200000e+000  3.741181e+000  3.534074e+000
    endloop
  endfacet
  facet normal  0.000000e+000  3.826837e-001  9.238795e-001
    outer loop
      vertex  8.200000e+000  3.741181e+000  3.534074e+000
      vertex  8.100000e+000  3.741181e+000  3.534074e+000
      vertex  8.100000e+000  3.500000e+000  3.633975e+000
    endloop
  endfacet
  facet normal  -0.000000e+000  3.826837e-001  9.238795e-001
    outer loop
      vertex  8.200000e+000  3.741181e+000  3.534074e+000
      vertex  8.100000e+000  3.500000e+000  3.633975e+000
      vertex  8.200000e+000  3.500000e+000  3.633975e+000
    endloop
  endfacet
  facet normal  0.000000e+000  6.087614e-001  7.933534e-001
    outer loop
      vertex  8.200000e+000  3.500000e+000  3.633975e+000
      vertex  8.100000e+000  3.500000e+000  3.633975e+000
      vertex  8.100000e+000  3.292893e+000  3.792893e+000
    endloop
  endfacet
  facet normal  -0.000000e+000  6.087614e-001  7.933534e-001
    outer loop
      vertex  8.200000e+000  3.500000e+000  3.633975e+000
      vertex  8.100000e+000  3.292893e+000  3.792893e+000
      vertex  8.200000e+000  3.292893e+000  3.792893e+000
    endloop
  endfacet
  facet normal  0.000000e+000  7.933534e-001  6.087614e-001
    outer loop
      vertex  8.200000e+000  3.292893e+000  3.792893e+000
      vertex  8.100000e+000  3.292893e+000  3.792893e+000
      vertex  8.100000e+000  3.133975e+000  4.000000e+000
    endloop
  endfacet
  facet normal  -0.000000e+000  7.933534e-001  6.087614e-001
    outer loop
      vertex  8.200000e+000  3.292893e+000  3.792893e+000
      vertex  8.100000e+000  3.133975e+000  4.000000e+000
      vertex  8.200000e+000  3.133975e+000  4.000000e+000
    endloop
  endfacet
  facet normal  0.000000e+000  9.238795e-001  3.826837e-001
    outer loop
      vertex  8.200000e+000  3.133975e+000  4.000000e+000
      vertex  8.100000e+000  3.133975e+000  4.000000e+000
      vertex  8.100000e+000  3.034074e+000  4.241181e+000
    endloop
  endfacet
  facet normal  -0.000000e+000  9.238795e-001  3.826837e-001
    outer loop
      vertex  8.200000e+000  3.133975e+000  4.000000e+000
      vertex  8.100000e+000  3.034074e+000  4.241181e+000
      vertex  8.200000e+000  3.034074e+000  4.241181e+000
    endloop
  endfacet
  facet normal  0.000000e+000  9.914449e-001  1.305258e-001
    outer loop
      vertex  8.200000e+000  3.034074e+000  4.241181e+000
      vertex  8.100000e+000  3.034074e+000  4.241181e+000
      vertex  8.100000e+000  3.000000e+000  4.500000e+000
    endloop
  endfacet
  facet normal  -0.000000e+000  9.914449e-001  1.305258e-001
    outer loop
      vertex  8.200000e+000  3.034074e+000  4.241181e+000
      vertex  8.100000e+000  3.000000e+000  4.500000e+000
      vertex  8.200000e+000  3.000000e+000  4.500000e+000
    endloop
  endfacet
  facet normal  0.000000e+000  9.937122e-001 -1.119646e-001
    outer loop
      vertex  8.100000e+000  5.400000e+000  4.500000e+000
      vertex  8.200000e+000  5.400000e+000  4.500000e+000
      vertex  8.100000e+000  5.364899e+000  4.188471e+000
    endloop
  endfacet
  facet normal  0.000000e+000  9.937122e-001 -1.119646e-001
    outer loop
      vertex  8.100000e+000  5.364899e+000  4.188471e+000
      vertex  8.200000e+000  5.400000e+000  4.500000e+000
      vertex  8.200000e+000  5.364899e+000  4.188471e+000
    endloop
  endfacet
  facet normal  0.000000e+000  9.438832e-001 -3.302794e-001
    outer loop
      vertex  8.100000e+000  5.364899e+000  4.188471e+000
      vertex  8.200000e+000  5.364899e+000  4.188471e+000
      vertex  8.100000e+000  5.261356e+000  3.892563e+000
    endloop
  endfacet
  facet normal  0.000000e+000  9.438832e-001 -3.302794e-001
    outer loop
      vertex  8.100000e+000  5.261356e+000  3.892563e+000
      vertex  8.200000e+000  5.364899e+000  4.188471e+000
      vertex  8.200000e+000  5.261356e+000  3.892563e+000
    endloop
  endfacet
  facet normal  0.000000e+000  8.467242e-001 -5.320321e-001
    outer loop
      vertex  8.100000e+000  5.261356e+000  3.892563e+000
      vertex  8.200000e+000  5.261356e+000  3.892563e+000
      vertex  8.100000e+000  5.094564e+000  3.627114e+000
    endloop
  endfacet
  facet normal  0.000000e+000  8.467242e-001 -5.320321e-001
    outer loop
      vertex  8.100000e+000  5.094564e+000  3.627114e+000
      vertex  8.200000e+000  5.261356e+000  3.892563e+000
      vertex  8.200000e+000  5.094564e+000  3.627114e+000
    endloop
  endfacet
  facet normal  0.000000e+000  7.071068e-001 -7.071068e-001
    outer loop
      vertex  8.100000e+000  5.094564e+000  3.627114e+000
      vertex  8.200000e+000  5.094564e+000  3.627114e+000
      vertex  8.100000e+000  4.872886e+000  3.405436e+000
    endloop
  endfacet
  facet normal  0.000000e+000  7.071068e-001 -7.071068e-001
    outer loop
      vertex  8.100000e+000  4.872886e+000  3.405436e+000
      vertex  8.200000e+000  5.094564e+000  3.627114e+000
      vertex  8.200000e+000  4.872886e+000  3.405436e+000
    endloop
  endfacet
  facet normal  0.000000e+000  5.320321e-001 -8.467242e-001
    outer loop
      vertex  8.100000e+000  4.872886e+000  3.405436e+000
      vertex  8.200000e+000  4.872886e+000  3.405436e+000
      vertex  8.100000e+000  4.607437e+000  3.238644e+000
    endloop
  endfacet
  facet normal  0.000000e+000  5.320321e-001 -8.467242e-001
    outer loop
      vertex  8.100000e+000  4.607437e+000  3.238644e+000
      vertex  8.200000e+000  4.872886e+000  3.405436e+000
      vertex  8.200000e+000  4.607437e+000  3.238644e+000
    endloop
  endfacet
  facet normal  0.000000e+000  3.302794e-001 -9.438832e-001
    outer loop
      vertex  8.100000e+000  4.607437e+000  3.238644e+000
      vertex  8.200000e+000  4.607437e+000  3.238644e+000
      vertex  8.100000e+000  4.311529e+000  3.135101e+000
    endloop
  endfacet
  facet normal  0.000000e+000  3.302794e-001 -9.438832e-001
    outer loop
      vertex  8.100000e+000  4.311529e+000  3.135101e+000
      vertex  8.200000e+000  4.607437e+000  3.238644e+000
      vertex  8.200000e+000  4.311529e+000  3.135101e+000
    endloop
  endfacet
  facet normal  0.000000e+000  1.119646e-001 -9.937122e-001
    outer loop
      vertex  8.100000e+000  4.311529e+000  3.135101e+000
      vertex  8.200000e+000  4.311529e+000  3.135101e+000
      vertex  8.100000e+000  4.000000e+000  3.100000e+000
    endloop
  endfacet
  facet normal  0.000000e+000  1.119646e-001 -9.937122e-001
    outer loop
      vertex  8.100000e+000  4.000000e+000  3.100000e+000
      vertex  8.200000e+000  4.311529e+000  3.135101e+000
      vertex  8.200000e+000  4.000000e+000  3.100000e+000
    endloop
  endfacet
  facet normal  -0.000000e+000 -1.119645e-001 -9.937122e-001
    outer loop
      vertex  8.100000e+000  4.000000e+000  3.100000e+000
      vertex  8.200000e+000  4.000000e+000  3.100000e+000
      vertex  8.100000e+000  3.688471e+000  3.135101e+000
    endloop
  endfacet
  facet normal  0.000000e+000 -1.119645e-001 -9.937122e-001
    outer loop
      vertex  8.100000e+000  3.688471e+000  3.135101e+000
      vertex  8.200000e+000  4.000000e+000  3.100000e+000
      vertex  8.200000e+000  3.688471e+000  3.135101e+000
    endloop
  endfacet
  facet normal  -0.000000e+000 -3.302796e-001 -9.438832e-001
    outer loop
      vertex  8.100000e+000  3.688471e+000  3.135101e+000
      vertex  8.200000e+000  3.688471e+000  3.135101e+000
      vertex  8.100000e+000  3.392563e+000  3.238644e+000
    endloop
  endfacet
  facet normal  0.000000e+000 -3.302796e-001 -9.438832e-001
    outer loop
      vertex  8.100000e+000  3.392563e+000  3.238644e+000
      vertex  8.200000e+000  3.688471e+000  3.135101e+000
      vertex  8.200000e+000  3.392563e+000  3.238644e+000
    endloop
  endfacet
  facet normal  -0.000000e+000 -5.320321e-001 -8.467242e-001
    outer loop
      vertex  8.100000e+000  3.392563e+000  3.238644e+000
      vertex  8.200000e+000  3.392563e+000  3.238644e+000
      vertex  8.100000e+000  3.127114e+000  3.405436e+000
    endloop
  endfacet
  facet normal  0.000000e+000 -5.320321e-001 -8.467242e-001
    outer loop
      vertex  8.100000e+000  3.127114e+000  3.405436e+000
      vertex  8.200000e+000  3.392563e+000  3.238644e+000
      vertex  8.200000e+000  3.127114e+000  3.405436e+000
    endloop
  endfacet
  facet normal  -0.000000e+000 -7.071068e-001 -7.071068e-001
    outer loop
      vertex  8.100000e+000  3.127114e+000  3.405436e+000
      vertex  8.200000e+000  3.127114e+000  3.405436e+000
      vertex  8.100000e+000  2.905436e+000  3.627114e+000
    endloop
  endfacet
  facet normal  0.000000e+000 -7.071068e-001 -7.071068e-001
    outer loop
      vertex  8.100000e+000  2.905436e+000  3.627114e+000
      vertex  8.200000e+000  3.127114e+000  3.405436e+000
      vertex  8.200000e+000  2.905436e+000  3.627114e+000
    endloop
  endfacet
  facet normal  -0.000000e+000 -8.467242e-001 -5.320321e-001
    outer loop
      vertex  8.100000e+000  2.905436e+000  3.627114e+000
      vertex  8.200000e+000  2.905436e+000  3.627114e+000
      vertex  8.100000e+000  2.738644e+000  3.892563e+000
    endloop
  endfacet
  facet normal  0.000000e+000 -8.467242e-001 -5.320321e-001
    outer loop
      vertex  8.100000e+000  2.738644e+000  3.892563e+000
      vertex  8.200000e+000  2.905436e+000  3.627114e+000
      vertex  8.200000e+000  2.738644e+000  3.892563e+000
    endloop
  endfacet
  facet normal  -0.000000e+000 -9.438832e-001 -3.302794e-001
    outer loop
      vertex  8.100000e+000  2.738644e+000  3.892563e+000
      vertex  8.200000e+000  2.738644e+000  3.892563e+000
      vertex  8.100000e+000  2.635101e+000  4.188471e+000
    endloop
  endfacet
  facet normal  0.000000e+000 -9.438832e-001 -3.302794e-001
    outer loop
      vertex  8.100000e+000  2.635101e+000  4.188471e+000
      vertex  8.200000e+000  2.738644e+000  3.892563e+000
      vertex  8.200000e+000  2.635101e+000  4.188471e+000
    endloop
  endfacet
  facet normal  -0.000000e+000 -9.937122e-001 -1.119646e-001
    outer loop
      vertex  8.100000e+000  2.635101e+000  4.188471e+000
      vertex  8.200000e+000  2.635101e+000  4.188471e+000
      vertex  8.100000e+000  2.600000e+000  4.500000e+000
    endloop
  endfacet
  facet normal  0.000000e+000 -9.937122e-001 -1.119646e-001
    outer loop
      vertex  8.100000e+000  2.600000e+000  4.500000e+000
      vertex  8.200000e+000  2.635101e+000  4.188471e+000
      vertex  8.200000e+000  2.600000e+000  4.500000e+000
    endloop
  endfacet
  facet normal  0.000000e+000 -9.937122e-001  1.119646e-001
    outer loop
      vertex  8.100000e+000  2.600000e+000  4.500000e+000
      vertex  8.200000e+000  2.600000e+000  4.500000e+000
      vertex  8.100000e+000  2.635101e+000  4.811529e+000
    endloop
  endfacet
  facet normal  0.000000e+000 -9.937122e-001  1.119646e-001
    outer loop
      vertex  8.100000e+000  2.635101e+000  4.811529e+000
      vertex  8.200000e+000  2.600000e+000  4.500000e+000
      vertex  8.200000e+000  2.635101e+000  4.811529e+000
    endloop
  endfacet
  facet normal  0.000000e+000 -9.438832e-001  3.302794e-001
    outer loop
      vertex  8.100000e+000  2.635101e+000  4.811529e+000
      vertex  8.200000e+000  2.635101e+000  4.811529e+000
      vertex  8.100000e+000  2.738644e+000  5.107437e+000
    endloop
  endfacet
  facet normal  0.000000e+000 -9.438832e-001  3.302794e-001
    outer loop
      vertex  8.100000e+000  2.738644e+000  5.107437e+000
      vertex  8.200000e+000  2.635101e+000  4.811529e+000
      vertex  8.200000e+000  2.738644e+000  5.107437e+000
    endloop
  endfacet
  facet normal  0.000000e+000 -8.467242e-001  5.320321e-001
    outer loop
      vertex  8.100000e+000  2.738644e+000  5.107437e+000
      vertex  8.200000e+000  2.738644e+000  5.107437e+000
      vertex  8.100000e+000  2.905436e+000  5.372886e+000
    endloop
  endfacet
  facet normal  0.000000e+000 -8.467242e-001  5.320321e-001
    outer loop
      vertex  8.100000e+000  2.905436e+000  5.372886e+000
      vertex  8.200000e+000  2.738644e+000  5.107437e+000
      vertex  8.200000e+000  2.905436e+000  5.372886e+000
    endloop
  endfacet
  facet normal  0.000000e+000 -7.071068e-001  7.071068e-001
    outer loop
      vertex  8.100000e+000  2.905436e+000  5.372886e+000
      vertex  8.200000e+000  2.905436e+000  5.372886e+000
      vertex  8.100000e+000  3.127114e+000  5.594564e+000
    endloop
  endfacet
  facet normal  0.000000e+000 -7.071068e-001  7.071068e-001
    outer loop
      vertex  8.100000e+000  3.127114e+000  5.594564e+000
      vertex  8.200000e+000  2.905436e+000  5.372886e+000
      vertex  8.200000e+000  3.127114e+000  5.594564e+000
    endloop
  endfacet
  facet normal  0.000000e+000 -5.320321e-001  8.467242e-001
    outer loop
      vertex  8.100000e+000  3.127114e+000  5.594564e+000
      vertex  8.200000e+000  3.127114e+000  5.594564e+000
      vertex  8.100000e+000  3.392563e+000  5.761356e+000
    endloop
  endfacet
  facet normal  0.000000e+000 -5.320321e-001  8.467242e-001
    outer loop
      vertex  8.100000e+000  3.392563e+000  5.761356e+000
      vertex  8.200000e+000  3.127114e+000  5.594564e+000
      vertex  8.200000e+000  3.392563e+000  5.761356e+000
    endloop
  endfacet
  facet normal  0.000000e+000 -3.302796e-001  9.438832e-001
    outer loop
      vertex  8.100000e+000  3.392563e+000  5.761356e+000
      vertex  8.200000e+000  3.392563e+000  5.761356e+000
      vertex  8.100000e+000  3.688471e+000  5.864899e+000
    endloop
  endfacet
  facet normal  0.000000e+000 -3.302796e-001  9.438832e-001
    outer loop
      vertex  8.100000e+000  3.688471e+000  5.864899e+000
      vertex  8.200000e+000  3.392563e+000  5.761356e+000
      vertex  8.200000e+000  3.688471e+000  5.864899e+000
    endloop
  endfacet
  facet normal  0.000000e+000 -1.119645e-001  9.937122e-001
    outer loop
      vertex  8.100000e+000  3.688471e+000  5.864899e+000
      vertex  8.200000e+000  3.688471e+000  5.864899e+000
      vertex  8.100000e+000  4.000000e+000  5.900000e+000
    endloop
  endfacet
  facet normal  0.000000e+000 -1.119645e-001  9.937122e-001
    outer loop
      vertex  8.100000e+000  4.000000e+000  5.900000e+000
      vertex  8.200000e+000  3.688471e+000  5.864899e+000
      vertex  8.200000e+000  4.000000e+000  5.900000e+000
    endloop
  endfacet
  facet normal  0.000000e+000  1.119646e-001  9.937122e-001
    outer loop
      vertex  8.100000e+000  4.000000e+000  5.900000e+000
      vertex  8.200000e+000  4.000000e+000  5.900000e+000
      vertex  8.100000e+000  4.311529e+000  5.864899e+000
    endloop
  endfacet
  facet normal  -0.000000e+000  1.119646e-001  9.937122e-001
    outer loop
      vertex  8.100000e+000  4.311529e+000  5.864899e+000
      vertex  8.200000e+000  4.000000e+000  5.900000e+000
      vertex  8.200000e+000  4.311529e+000  5.864899e+000
    endloop
  endfacet
  facet normal  0.000000e+000  3.302794e-001  9.438832e-001
    outer loop
      vertex  8.100000e+000  4.311529e+000  5.864899e+000
      vertex  8.200000e+000  4.311529e+000  5.864899e+000
      vertex  8.100000e+000  4.607437e+000  5.761356e+000
    endloop
  endfacet
  facet normal  -0.000000e+000  3.302794e-001  9.438832e-001
    outer loop
      vertex  8.100000e+000  4.607437e+000  5.761356e+000
      vertex  8.200000e+000  4.311529e+000  5.864899e+000
      vertex  8.200000e+000  4.607437e+000  5.761356e+000
    endloop
  endfacet
  facet normal  0.000000e+000  5.320321e-001  8.467242e-001
    outer loop
      vertex  8.100000e+000  4.607437e+000  5.761356e+000
      vertex  8.200000e+000  4.607437e+000  5.761356e+000
      vertex  8.100000e+000  4.872886e+000  5.594564e+000
    endloop
  endfacet
  facet normal  -0.000000e+000  5.320321e-001  8.467242e-001
    outer loop
      vertex  8.100000e+000  4.872886e+000  5.594564e+000
      vertex  8.200000e+000  4.607437e+000  5.761356e+000
      vertex  8.200000e+000  4.872886e+000  5.594564e+000
    endloop
  endfacet
  facet normal  0.000000e+000  7.071068e-001  7.071068e-001
    outer loop
      vertex  8.100000e+000  4.872886e+000  5.594564e+000
      vertex  8.200000e+000  4.872886e+000  5.594564e+000
      vertex  8.100000e+000  5.094564e+000  5.372886e+000
    endloop
  endfacet
  facet normal  -0.000000e+000  7.071068e-001  7.071068e-001
    outer loop
      vertex  8.100000e+000  5.094564e+000  5.372886e+000
      vertex  8.200000e+000  4.872886e+000  5.594564e+000
      vertex  8.200000e+000  5.094564e+000  5.372886e+000
    endloop
  endfacet
  facet normal  0.000000e+000  8.467242e-001  5.320321e-001
    outer loop
      vertex  8.100000e+000  5.094564e+000  5.372886e+000
      vertex  8.200000e+000  5.094564e+000  5.372886e+000
      vertex  8.100000e+000  5.261356e+000  5.107437e+000
    endloop
  endfacet
  facet normal  -0.000000e+000  8.467242e-001  5.320321e-001
    outer loop
      vertex  8.100000e+000  5.261356e+000  5.107437e+000
      vertex  8.200000e+000  5.094564e+000  5.372886e+000
      vertex  8.200000e+000  5.261356e+000  5.107437e+000
    endloop
  endfacet
  facet normal  0.000000e+000  9.438832e-001  3.302794e-001
    outer loop
      vertex  8.100000e+000  5.261356e+000  5.107437e+000
      vertex  8.200000e+000  5.261356e+000  5.107437e+000
      vertex  8.100000e+000  5.364899e+000  4.811529e+000
    endloop
  endfacet
  facet normal  -0.000000e+000  9.438832e-001  3.302794e-001
    outer loop
      vertex  8.100000e+000  5.364899e+000  4.811529e+000
      vertex  8.200000e+000  5.261356e+000  5.107437e+000
      vertex  8.200000e+000  5.364899e+000  4.811529e+000
    endloop
  endfacet
  facet normal  0.000000e+000  9.937122e-001  1.119646e-001
    outer loop
      vertex  8.100000e+000  5.364899e+000  4.811529e+000
      vertex  8.200000e+000  5.364899e+000  4.811529e+000
      vertex  8.100000e+000  5.400000e+000  4.500000e+000
    endloop
  endfacet
  facet normal  -0.000000e+000  9.937122e-001  1.119646e-001
    outer loop
      vertex  8.100000e+000  5.400000e+000  4.500000e+000
      vertex  8.200000e+000  5.364899e+000  4.811529e+000
      vertex  8.200000e+000  5.400000e+000  4.500000e+000
    endloop
  endfacet
  facet normal  1.000000e+000  0.000000e+000  0.000000e+000
    outer loop
      vertex  8.200000e+000  8.900000e+000  4.200000e+000
      vertex  8.200000e+000  1.210000e+001  4.200000e+000
      vertex  8.200000e+000  8.900000e+000  4.800000e+000
    endloop
  endfacet
  facet normal  1.000000e+000  -0.000000e+000  0.000000e+000
    outer loop
      vertex  8.200000e+000  8.900000e+000  4.800000e+000
      vertex  8.200000e+000  1.210000e+001  4.200000e+000
      vertex  8.200000e+000  1.210000e+001  4.800000e+000
    endloop
  endfacet
  facet normal  1.000000e+000  0.000000e+000  -0.000000e+000
    outer loop
      vertex  8.200000e+000  4.000000e+000  5.500000e+000
      vertex  8.200000e+000  4.258819e+000  5.465926e+000
      vertex  8.200000e+000  4.872886e+000  5.594564e+000
    endloop
  endfacet
  facet normal  1.000000e+000  0.000000e+000  0.000000e+000
    outer loop
      vertex  8.200000e+000  4.000000e+000  5.500000e+000
      vertex  8.200000e+000  4.872886e+000  5.594564e+000
      vertex  8.200000e+000  4.607437e+000  5.761356e+000
    endloop
  endfacet
  facet normal  1.000000e+000  0.000000e+000  0.000000e+000
    outer loop
      vertex  8.200000e+000  4.000000e+000  5.500000e+000
      vertex  8.200000e+000  4.607437e+000  5.761356e+000
      vertex  8.200000e+000  4.311529e+000  5.864899e+000
    endloop
  endfacet
  facet normal  1.000000e+000  0.000000e+000  0.000000e+000
    outer loop
      vertex  8.200000e+000  4.000000e+000  5.500000e+000
      vertex  8.200000e+000  4.311529e+000  5.864899e+000
      vertex  8.200000e+000  4.000000e+000  5.900000e+000
    endloop
  endfacet
  facet normal  1.000000e+000  0.000000e+000  0.000000e+000
    outer loop
      vertex  8.200000e+000  4.000000e+000  5.500000e+000
      vertex  8.200000e+000  4.000000e+000  5.900000e+000
      vertex  8.200000e+000  3.688471e+000  5.864899e+000
    endloop
  endfacet
  facet normal  1.000000e+000  0.000000e+000  0.000000e+000
    outer loop
      vertex  8.200000e+000  4.000000e+000  5.500000e+000
      vertex  8.200000e+000  3.688471e+000  5.864899e+000
      vertex  8.200000e+000  3.392563e+000  5.761356e+000
    endloop
  endfacet
  facet normal  1.000000e+000  0.000000e+000  0.000000e+000
    outer loop
      vertex  8.200000e+000  4.000000e+000  5.500000e+000
      vertex  8.200000e+000  3.392563e+000  5.761356e+000
      vertex  8.200000e+000  3.127114e+000  5.594564e+000
    endloop
  endfacet
  facet normal  1.000000e+000  0.000000e+000  0.000000e+000
    outer loop
      vertex  8.200000e+000  4.000000e+000  5.500000e+000
      vertex  8.200000e+000  3.127114e+000  5.594564e+000
      vertex  8.200000e+000  3.741181e+000  5.465926e+000
    endloop
  endfacet
  facet normal  1.000000e+000  0.000000e+000  -0.000000e+000
    outer loop
      vertex  8.200000e+000  4.000000e+000  3.100000e+000
      vertex  8.200000e+000  4.311529e+000  3.135101e+000
      vertex  8.200000e+000  4.607437e+000  3.238644e+000
    endloop
  endfacet
  facet normal  1.000000e+000  0.000000e+000  -0.000000e+000
    outer loop
      vertex  8.200000e+000  4.000000e+000  3.100000e+000
      vertex  8.200000e+000  4.607437e+000  3.238644e+000
      vertex  8.200000e+000  4.872886e+000  3.405436e+000
    endloop
  endfacet
  facet normal  1.000000e+000  0.000000e+000  0.000000e+000
    outer loop
      vertex  8.200000e+000  4.000000e+000  3.100000e+000
      vertex  8.200000e+000  4.872886e+000  3.405436e+000
      vertex  8.200000e+000  4.000000e+000  3.500000e+000
    endloop
  endfacet
  facet normal  1.000000e+000  0.000000e+000  0.000000e+000
    outer loop
      vertex  8.200000e+000  4.000000e+000  3.100000e+000
      vertex  8.200000e+000  4.000000e+000  3.500000e+000
      vertex  8.200000e+000  3.127114e+000  3.405436e+000
    endloop
  endfacet
  facet normal  1.000000e+000  0.000000e+000  0.000000e+000
    outer loop
      vertex  8.200000e+000  4.000000e+000  3.100000e+000
      vertex  8.200000e+000  3.127114e+000  3.405436e+000
      vertex  8.200000e+000  3.392563e+000  3.238644e+000
    endloop
  endfacet
  facet normal  9.999999e-001  0.000000e+000  0.000000e+000
    outer loop
      vertex  8.200000e+000  4.000000e+000  3.100000e+000
      vertex  8.200000e+000  3.392563e+000  3.238644e+000
      vertex  8.200000e+000  3.688471e+000  3.135101e+000
    endloop
  endfacet
  facet normal  1.000000e+000  0.000000e+000  0.000000e+000
    outer loop
      vertex  8.200000e+000  3.741181e+000  5.465926e+000
      vertex  8.200000e+000  3.127114e+000  5.594564e+000
      vertex  8.200000e+000  3.500000e+000  5.366025e+000
    endloop
  endfacet
  facet normal  1.000000e+000  0.000000e+000  0.000000e+000
    outer loop
      vertex  8.200000e+000  3.500000e+000  5.366025e+000
      vertex  8.200000e+000  3.127114e+000  5.594564e+000
      vertex  8.200000e+000  2.905436e+000  5.372886e+000
    endloop
  endfacet
  facet normal  1.000000e+000  0.000000e+000  0.000000e+000
    outer loop
      vertex  8.200000e+000  3.500000e+000  5.366025e+000
      vertex  8.200000e+000  2.905436e+000  5.372886e+000
      vertex  8.200000e+000  3.292893e+000  5.207107e+000
    endloop
  endfacet
  facet normal  1.000000e+000  0.000000e+000  0.000000e+000
    outer loop
      vertex  8.200000e+000  3.292893e+000  5.207107e+000
      vertex  8.200000e+000  2.905436e+000  5.372886e+000
      vertex  8.200000e+000  2.738644e+000  5.107437e+000
    endloop
  endfacet
  facet normal  1.000000e+000  -0.000000e+000  0.000000e+000
    outer loop
      vertex  8.200000e+000  3.292893e+000  5.207107e+000
      vertex  8.200000e+000  2.738644e+000  5.107437e+000
      vertex  8.200000e+000  3.133975e+000  5.000000e+000
    endloop
  endfacet
  facet normal  1.000000e+000  0.000000e+000  0.000000e+000
    outer loop
      vertex  8.200000e+000  3.133975e+000  5.000000e+000
      vertex  8.200000e+000  2.738644e+000  5.107437e+000
      vertex  8.200000e+000  2.635101e+000  4.811529e+000
    endloop
  endfacet
  facet normal  1.000000e+000  -0.000000e+000  0.000000e+000
    outer loop
      vertex  8.200000e+000  3.133975e+000  5.000000e+000
      vertex  8.200000e+000  2.635101e+000  4.811529e+000
      vertex  8.200000e+000  3.034074e+000  4.758819e+000
    endloop
  endfacet
  facet normal  1.000000e+000  0.000000e+000  0.000000e+000
    outer loop
      vertex  8.200000e+000  3.034074e+000  4.758819e+000
      vertex  8.200000e+000  2.635101e+000  4.811529e+000
      vertex  8.200000e+000  3.000000e+000  4.500000e+000
    endloop
  endfacet
  facet normal  1.000000e+000  0.000000e+000  0.000000e+000
    outer loop
      vertex  8.200000e+000  3.000000e+000  4.500000e+000
      vertex  8.200000e+000  2.635101e+000  4.811529e+000
      vertex  8.200000e+000  2.600000e+000  4.500000e+000
    endloop
  endfacet
  facet normal  1.000000e+000  -0.000000e+000  0.000000e+000
    outer loop
      vertex  8.200000e+000  3.000000e+000  4.500000e+000
      vertex  8.200000e+000  2.600000e+000  4.500000e+000
      vertex  8.200000e+000  3.034074e+000  4.241181e+000
    endloop
  endfacet
  facet normal  1.000000e+000  0.000000e+000  0.000000e+000
    outer loop
      vertex  8.200000e+000  3.034074e+000  4.241181e+000
      vertex  8.200000e+000  2.600000e+000  4.500000e+000
      vertex  8.200000e+000  2.635101e+000  4.188471e+000
    endloop
  endfacet
  facet normal  1.000000e+000  -0.000000e+000  0.000000e+000
    outer loop
      vertex  8.200000e+000  3.034074e+000  4.241181e+000
      vertex  8.200000e+000  2.635101e+000  4.188471e+000
      vertex  8.200000e+000  3.133975e+000  4.000000e+000
    endloop
  endfacet
  facet normal  1.000000e+000  0.000000e+000  0.000000e+000
    outer loop
      vertex  8.200000e+000  3.133975e+000  4.000000e+000
      vertex  8.200000e+000  2.635101e+000  4.188471e+000
      vertex  8.200000e+000  2.738644e+000  3.892563e+000
    endloop
  endfacet
  facet normal  1.000000e+000  -0.000000e+000  0.000000e+000
    outer loop
      vertex  8.200000e+000  3.133975e+000  4.000000e+000
      vertex  8.200000e+000  2.738644e+000  3.892563e+000
      vertex  8.200000e+000  3.292893e+000  3.792893e+000
    endloop
  endfacet
  facet normal  1.000000e+000  0.000000e+000  0.000000e+000
    outer loop
      vertex  8.200000e+000  3.292893e+000  3.792893e+000
      vertex  8.200000e+000  2.738644e+000  3.892563e+000
      vertex  8.200000e+000  3.500000e+000  3.633975e+000
    endloop
  endfacet
  facet normal  1.000000e+000  0.000000e+000  0.000000e+000
    outer loop
      vertex  8.200000e+000  3.500000e+000  3.633975e+000
      vertex  8.200000e+000  2.738644e+000  3.892563e+000
      vertex  8.200000e+000  2.905436e+000  3.627114e+000
    endloop
  endfacet
  facet normal  9.999999e-001  -0.000000e+000  0.000000e+000
    outer loop
      vertex  8.200000e+000  3.500000e+000  3.633975e+000
      vertex  8.200000e+000  2.905436e+000  3.627114e+000
      vertex  8.200000e+000  3.741181e+000  3.534074e+000
    endloop
  endfacet
  facet normal  1.000000e+000  0.000000e+000  0.000000e+000
    outer loop
      vertex  8.200000e+000  3.741181e+000  3.534074e+000
      vertex  8.200000e+000  2.905436e+000  3.627114e+000
      vertex  8.200000e+000  3.127114e+000  3.405436e+000
    endloop
  endfacet
  facet normal  1.000000e+000  0.000000e+000  0.000000e+000
    outer loop
      vertex  8.200000e+000  3.741181e+000  3.534074e+000
      vertex  8.200000e+000  3.127114e+000  3.405436e+000
      vertex  8.200000e+000  4.000000e+000  3.500000e+000
    endloop
  endfacet
  facet normal  1.000000e+000  -0.000000e+000  0.000000e+000
    outer loop
      vertex  8.200000e+000  4.872886e+000  5.594564e+000
      vertex  8.200000e+000  4.258819e+000  5.465926e+000
      vertex  8.200000e+000  5.094564e+000  5.372886e+000
    endloop
  endfacet
  facet normal  1.000000e+000  0.000000e+000  0.000000e+000
    outer loop
      vertex  8.200000e+000  5.094564e+000  5.372886e+000
      vertex  8.200000e+000  4.258819e+000  5.465926e+000
      vertex  8.200000e+000  4.500000e+000  5.366025e+000
    endloop
  endfacet
  facet normal  1.000000e+000  -0.000000e+000  0.000000e+000
    outer loop
      vertex  8.200000e+000  5.094564e+000  5.372886e+000
      vertex  8.200000e+000  4.500000e+000  5.366025e+000
      vertex  8.200000e+000  5.261356e+000  5.107437e+000
    endloop
  endfacet
  facet normal  1.000000e+000  0.000000e+000  0.000000e+000
    outer loop
      vertex  8.200000e+000  5.261356e+000  5.107437e+000
      vertex  8.200000e+000  4.500000e+000  5.366025e+000
      vertex  8.200000e+000  4.707107e+000  5.207107e+000
    endloop
  endfacet
  facet normal  1.000000e+000  0.000000e+000  0.000000e+000
    outer loop
      vertex  8.200000e+000  5.261356e+000  5.107437e+000
      vertex  8.200000e+000  4.707107e+000  5.207107e+000
      vertex  8.200000e+000  5.364899e+000  4.811529e+000
    endloop
  endfacet
  facet normal  1.000000e+000  0.000000e+000  0.000000e+000
    outer loop
      vertex  8.200000e+000  5.364899e+000  4.811529e+000
      vertex  8.200000e+000  4.707107e+000  5.207107e+000
      vertex  8.200000e+000  4.866025e+000  5.000000e+000
    endloop
  endfacet
  facet normal  1.000000e+000  0.000000e+000  0.000000e+000
    outer loop
      vertex  8.200000e+000  5.364899e+000  4.811529e+000
      vertex  8.200000e+000  4.866025e+000  5.000000e+000
      vertex  8.200000e+000  4.965926e+000  4.758819e+000
    endloop
  endfacet
  facet normal  1.000000e+000  -0.000000e+000  0.000000e+000
    outer loop
      vertex  8.200000e+000  5.364899e+000  4.811529e+000
      vertex  8.200000e+000  4.965926e+000  4.758819e+000
      vertex  8.200000e+000  5.400000e+000  4.500000e+000
    endloop
  endfacet
  facet normal  1.000000e+000  0.000000e+000  0.000000e+000
    outer loop
      vertex  8.200000e+000  5.400000e+000  4.500000e+000
      vertex  8.200000e+000  4.965926e+000  4.758819e+000
      vertex  8.200000e+000  5.000000e+000  4.500000e+000
    endloop
  endfacet
  facet normal  1.000000e+000  -0.000000e+000  0.000000e+000
    outer loop
      vertex  8.200000e+000  5.400000e+000  4.500000e+000
      vertex  8.200000e+000  5.000000e+000  4.500000e+000
      vertex  8.200000e+000  5.364899e+000  4.188471e+000
    endloop
  endfacet
  facet normal  9.999999e-001  0.000000e+000  0.000000e+000
    outer loop
      vertex  8.200000e+000  5.364899e+000  4.188471e+000
      vertex  8.200000e+000  5.000000e+000  4.500000e+000
      vertex  8.200000e+000  4.965926e+000  4.241181e+000
    endloop
  endfacet
  facet normal  1.000000e+000  0.000000e+000  0.000000e+000
    outer loop
      vertex  8.200000e+000  5.364899e+000  4.188471e+000
      vertex  8.200000e+000  4.965926e+000  4.241181e+000
      vertex  8.200000e+000  5.261356e+000  3.892563e+000
    endloop
  endfacet
  facet normal  1.000000e+000  0.000000e+000  0.000000e+000
    outer loop
      vertex  8.200000e+000  5.261356e+000  3.892563e+000
      vertex  8.200000e+000  4.965926e+000  4.241181e+000
      vertex  8.200000e+000  4.866025e+000  4.000000e+000
    endloop
  endfacet
  facet normal  1.000000e+000  0.000000e+000  0.000000e+000
    outer loop
      vertex  8.200000e+000  5.261356e+000  3.892563e+000
      vertex  8.200000e+000  4.866025e+000  4.000000e+000
      vertex  8.200000e+000  4.707107e+000  3.792893e+000
    endloop
  endfacet
  facet normal  1.000000e+000  -0.000000e+000  0.000000e+000
    outer loop
      vertex  8.200000e+000  5.261356e+000  3.892563e+000
      vertex  8.200000e+000  4.707107e+000  3.792893e+000
      vertex  8.200000e+000  5.094564e+000  3.627114e+000
    endloop
  endfacet
  facet normal  1.000000e+000  0.000000e+000  0.000000e+000
    outer loop
      vertex  8.200000e+000  5.094564e+000  3.627114e+000
      vertex  8.200000e+000  4.707107e+000  3.792893e+000
      vertex  8.200000e+000  4.500000e+000  3.633975e+000
    endloop
  endfacet
  facet normal  1.000000e+000  0.000000e+000  0.000000e+000
    outer loop
      vertex  8.200000e+000  5.094564e+000  3.627114e+000
      vertex  8.200000e+000  4.500000e+000  3.633975e+000
      vertex  8.200000e+000  4.872886e+000  3.405436e+000
    endloop
  endfacet
  facet normal  1.000000e+000  0.000000e+000  0.000000e+000
    outer loop
      vertex  8.200000e+000  4.872886e+000  3.405436e+000
      vertex  8.200000e+000  4.500000e+000  3.633975e+000
      vertex  8.200000e+000  4.258819e+000  3.534074e+000
    endloop
  endfacet
  facet normal  1.000000e+000  0.000000e+000  0.000000e+000
    outer loop
      vertex  8.200000e+000  4.872886e+000  3.405436e+000
      vertex  8.200000e+000  4.258819e+000  3.534074e+000
      vertex  8.200000e+000  4.000000e+000  3.500000e+000
    endloop
  endfacet
  facet normal  1.000000e+000  0.000000e+000  0.000000e+000
    outer loop
      vertex  8.000000e+000  1.460000e+001  0.000000e+000
      vertex  8.000000e+000  1.380000e+001  7.000000e-001
      vertex  8.000000e+000  0.000000e+000  0.000000e+000
    endloop
  endfacet
  facet normal  1.000000e+000  0.000000e+000  0.000000e+000
    outer loop
      vertex  8.000000e+000  0.000000e+000  0.000000e+000
      vertex  8.000000e+000  1.380000e+001  7.000000e-001
      vertex  8.000000e+000  8.000000e-001  7.000000e-001
    endloop
  endfacet
  facet normal  1.000000e+000  0.000000e+000  0.000000e+000
    outer loop
      vertex  8.000000e+000  0.000000e+000  0.000000e+000
      vertex  8.000000e+000  8.000000e-001  7.000000e-001
      vertex  8.000000e+000 -6.217249e-015  9.000000e+000
    endloop
  endfacet
  facet normal  9.999999e-001  0.000000e+000  0.000000e+000
    outer loop
      vertex  8.000000e+000 -6.217249e-015  9.000000e+000
      vertex  8.000000e+000  8.000000e-001  7.000000e-001
      vertex  8.000000e+000  8.000000e-001  8.300000e+000
    endloop
  endfacet
  facet normal  9.999999e-001  0.000000e+000  -0.000000e+000
    outer loop
      vertex  8.000000e+000 -6.217249e-015  9.000000e+000
      vertex  8.000000e+000  8.000000e-001  8.300000e+000
      vertex  8.000000e+000  1.460000e+001  9.000000e+000
    endloop
  endfacet
  facet normal  1.000000e+000  0.000000e+000  0.000000e+000
    outer loop
      vertex  8.000000e+000  1.460000e+001  9.000000e+000
      vertex  8.000000e+000  8.000000e-001  8.300000e+000
      vertex  8.000000e+000  1.380000e+001  8.300000e+000
    endloop
  endfacet
  facet normal  9.999999e-001  -0.000000e+000  0.000000e+000
    outer loop
      vertex  8.000000e+000  1.460000e+001  9.000000e+000
      vertex  8.000000e+000  1.380000e+001  8.300000e+000
      vertex  8.000000e+000  1.460000e+001  0.000000e+000
    endloop
  endfacet
  facet normal  1.000000e+000  0.000000e+000  0.000000e+000
    outer loop
      vertex  8.000000e+000  1.460000e+001  0.000000e+000
      vertex  8.000000e+000  1.380000e+001  8.300000e+000
      vertex  8.000000e+000  1.380000e+001  7.000000e-001
    endloop
  endfacet
  facet normal  0.000000e+000  0.000000e+000  1.000000e+000
    outer loop
      vertex  8.100000e+000  8.000000e-001  8.300000e+000
      vertex  8.100000e+000  1.380000e+001  8.300000e+000
      vertex  8.000000e+000  8.000000e-001  8.300000e+000
    endloop
  endfacet
  facet normal  0.000000e+000  0.000000e+000  1.000000e+000
    outer loop
      vertex  8.000000e+000  8.000000e-001  8.300000e+000
      vertex  8.100000e+000  1.380000e+001  8.300000e+000
      vertex  8.000000e+000  1.380000e+001  8.300000e+000
    endloop
  endfacet
  facet normal  0.000000e+000  1.000000e+000  0.000000e+000
    outer loop
      vertex  8.100000e+000  1.380000e+001  7.000000e-001
      vertex  8.000000e+000  1.380000e+001  7.000000e-001
      vertex  8.100000e+000  1.380000e+001  8.300000e+000
    endloop
  endfacet
  facet normal  0.000000e+000  1.000000e+000  0.000000e+000
    outer loop
      vertex  8.100000e+000  1.380000e+001  8.300000e+000
      vertex  8.000000e+000  1.380000e+001  7.000000e-001
      vertex  8.000000e+000  1.380000e+001  8.300000e+000
    endloop
  endfacet
  facet normal  0.000000e+000  0.000000e+000 -1.000000e+000
    outer loop
      vertex  8.100000e+000  1.380000e+001  7.000000e-001
      vertex  8.100000e+000  8.000000e-001  7.000000e-001
      vertex  8.000000e+000  1.380000e+001  7.000000e-001
    endloop
  endfacet
  facet normal  0.000000e+000  0.000000e+000 -1.000000e+000
    outer loop
      vertex  8.000000e+000  1.380000e+001  7.000000e-001
      vertex  8.100000e+000  8.000000e-001  7.000000e-001
      vertex  8.000000e+000  8.000000e-001  7.000000e-001
    endloop
  endfacet
  facet normal  0.000000e+000 -1.000000e+000  0.000000e+000
    outer loop
      vertex  8.100000e+000  8.000000e-001  8.300000e+000
      vertex  8.000000e+000  8.000000e-001  8.300000e+000
      vertex  8.100000e+000  8.000000e-001  7.000000e-001
    endloop
  endfacet
  facet normal  0.000000e+000 -1.000000e+000  0.000000e+000
    outer loop
      vertex  8.100000e+000  8.000000e-001  7.000000e-001
      vertex  8.000000e+000  8.000000e-001  8.300000e+000
      vertex  8.000000e+000  8.000000e-001  7.000000e-001
    endloop
  endfacet
  facet normal -1.000000e+000  0.000000e+000  0.000000e+000
    outer loop
      vertex  0.000000e+000  0.000000e+000  0.000000e+000
      vertex  0.000000e+000 -6.217249e-015  9.000000e+000
      vertex  0.000000e+000  1.460000e+001  0.000000e+000
    endloop
  endfacet
  facet normal -1.000000e+000  0.000000e+000  0.000000e+000
    outer loop
      vertex  0.000000e+000  1.460000e+001  0.000000e+000
      vertex  0.000000e+000 -6.217249e-015  9.000000e+000
      vertex  0.000000e+000  1.460000e+001  9.000000e+000
    endloop
  endfacet
  facet normal  0.000000e+000 -1.000000e+000 -6.908054e-016
    outer loop
      vertex  8.000000e+000 -6.217249e-015  9.000000e+000
      vertex  0.000000e+000 -6.217249e-015  9.000000e+000
      vertex  8.000000e+000  0.000000e+000  0.000000e+000
    endloop
  endfacet
  facet normal  -0.000000e+000 -1.000000e+000 -6.908054e-016
    outer loop
      vertex  8.000000e+000  0.000000e+000  0.000000e+000
      vertex  0.000000e+000 -6.217249e-015  9.000000e+000
      vertex  0.000000e+000  0.000000e+000  0.000000e+000
    endloop
  endfacet
  facet normal  -0.000000e+000  0.000000e+000  1.000000e+000
    outer loop
      vertex  8.000000e+000  1.460000e+001  9.000000e+000
      vertex  0.000000e+000  1.460000e+001  9.000000e+000
      vertex  8.000000e+000 -6.217249e-015  9.000000e+000
    endloop
  endfacet
  facet normal  0.000000e+000  0.000000e+000  1.000000e+000
    outer loop
      vertex  8.000000e+000 -6.217249e-015  9.000000e+000
      vertex  0.000000e+000  1.460000e+001  9.000000e+000
      vertex  0.000000e+000 -6.217249e-015  9.000000e+000
    endloop
  endfacet
  facet normal  0.000000e+000  1.000000e+000  0.000000e+000
    outer loop
      vertex  8.000000e+000  1.460000e+001  0.000000e+000
      vertex  0.000000e+000  1.460000e+001  0.000000e+000
      vertex  8.000000e+000  1.460000e+001  9.000000e+000
    endloop
  endfacet
  facet normal  0.000000e+000  1.000000e+000  0.000000e+000
    outer loop
      vertex  8.000000e+000  1.460000e+001  9.000000e+000
      vertex  0.000000e+000  1.460000e+001  0.000000e+000
      vertex  0.000000e+000  1.460000e+001  9.000000e+000
    endloop
  endfacet
  facet normal  0.000000e+000  0.000000e+000 -1.000000e+000
    outer loop
      vertex  8.000000e+000  0.000000e+000  0.000000e+000
      vertex  0.000000e+000  0.000000e+000  0.000000e+000
      vertex  8.000000e+000  1.460000e+001  0.000000e+000
    endloop
  endfacet
  facet normal  -0.000000e+000  0.000000e+000 -1.000000e+000
    outer loop
      vertex  8.000000e+000  1.460000e+001  0.000000e+000
      vertex  0.000000e+000  0.000000e+000  0.000000e+000
      vertex  0.000000e+000  1.460000e+001  0.000000e+000
    endloop
  endfacet
endsolid CATIA STL
